<svg width="64" height="88" viewBox="0 0 64 88" fill="none" xmlns="http://www.w3.org/2000/svg">
<path d="M58 88H6C2.685 88 0 85.315 0 82V6C0 2.685 2.685 0 6 0H42L64 22V82C64 85.315 61.315 88 58 88Z" fill="#7248B9"/>
<path d="M42 0L64 22H42V0Z" fill="#56368A"/>
<path d="M50 34H25V39H50V34Z" fill="white"/>
<path d="M17 39.5C18.6569 39.5 20 38.1569 20 36.5C20 34.8431 18.6569 33.5 17 33.5C15.3431 33.5 14 34.8431 14 36.5C14 38.1569 15.3431 39.5 17 39.5Z" fill="white"/>
<path d="M50 46H25V51H50V46Z" fill="white"/>
<path d="M17 51.5C18.6569 51.5 20 50.1569 20 48.5C20 46.8431 18.6569 45.5 17 45.5C15.3431 45.5 14 46.8431 14 48.5C14 50.1569 15.3431 51.5 17 51.5Z" fill="white"/>
<path d="M50 58H25V63H50V58Z" fill="white"/>
<path d="M17 63.5C18.6569 63.5 20 62.1569 20 60.5C20 58.8431 18.6569 57.5 17 57.5C15.3431 57.5 14 58.8431 14 60.5C14 62.1569 15.3431 63.5 17 63.5Z" fill="white"/>
</svg>
